<svg width="100%" height="100%" viewBox="0 0 500 350" fill="none" xmlns="http://www.w3.org/2000/svg">
<rect className='shape' width="500" height="350" rx="132.5" fill="white" fill-opacity='0.4'/>
<path d="M209.908 187.268H195.868L192.844 194H190.072L201.592 168.8H204.22L215.74 194H212.932L209.908 187.268ZM208.936 185.108L202.888 171.572L196.84 185.108H208.936ZM242.985 174.92C245.361 174.92 247.221 175.604 248.565 176.972C249.933 178.34 250.617 180.356 250.617 183.02V194H248.061V183.272C248.061 181.304 247.581 179.804 246.621 178.772C245.685 177.74 244.353 177.224 242.625 177.224C240.657 177.224 239.109 177.836 237.981 179.06C236.853 180.26 236.289 181.928 236.289 184.064V194H233.733V183.272C233.733 181.304 233.253 179.804 232.293 178.772C231.357 177.74 230.013 177.224 228.261 177.224C226.317 177.224 224.769 177.836 223.617 179.06C222.489 180.26 221.925 181.928 221.925 184.064V194H219.369V175.064H221.817V178.52C222.489 177.368 223.425 176.48 224.625 175.856C225.825 175.232 227.205 174.92 228.765 174.92C230.349 174.92 231.717 175.256 232.869 175.928C234.045 176.6 234.921 177.596 235.497 178.916C236.193 177.668 237.189 176.696 238.485 176C239.805 175.28 241.305 174.92 242.985 174.92ZM257.548 175.064H260.104V194H257.548V175.064ZM258.844 170.924C258.316 170.924 257.872 170.744 257.512 170.384C257.152 170.024 256.972 169.592 256.972 169.088C256.972 168.608 257.152 168.188 257.512 167.828C257.872 167.468 258.316 167.288 258.844 167.288C259.372 167.288 259.816 167.468 260.176 167.828C260.536 168.164 260.716 168.572 260.716 169.052C260.716 169.58 260.536 170.024 260.176 170.384C259.816 170.744 259.372 170.924 258.844 170.924ZM276.864 174.92C279.24 174.92 281.124 175.616 282.516 177.008C283.932 178.376 284.64 180.38 284.64 183.02V194H282.084V183.272C282.084 181.304 281.592 179.804 280.608 178.772C279.624 177.74 278.22 177.224 276.396 177.224C274.356 177.224 272.736 177.836 271.536 179.06C270.36 180.26 269.772 181.928 269.772 184.064V194H267.216V175.064H269.664V178.556C270.36 177.404 271.32 176.516 272.544 175.892C273.792 175.244 275.232 174.92 276.864 174.92ZM299.39 194.18C297.566 194.18 295.922 193.772 294.458 192.956C292.994 192.116 291.842 190.964 291.002 189.5C290.162 188.036 289.742 186.38 289.742 184.532C289.742 182.684 290.162 181.028 291.002 179.564C291.842 178.1 292.994 176.96 294.458 176.144C295.922 175.328 297.566 174.92 299.39 174.92C301.214 174.92 302.858 175.328 304.322 176.144C305.786 176.96 306.926 178.1 307.742 179.564C308.582 181.028 309.002 182.684 309.002 184.532C309.002 186.38 308.582 188.036 307.742 189.5C306.926 190.964 305.786 192.116 304.322 192.956C302.858 193.772 301.214 194.18 299.39 194.18ZM299.39 191.912C300.734 191.912 301.934 191.612 302.99 191.012C304.07 190.388 304.91 189.512 305.51 188.384C306.11 187.256 306.41 185.972 306.41 184.532C306.41 183.092 306.11 181.808 305.51 180.68C304.91 179.552 304.07 178.688 302.99 178.088C301.934 177.464 300.734 177.152 299.39 177.152C298.046 177.152 296.834 177.464 295.754 178.088C294.698 178.688 293.858 179.552 293.234 180.68C292.634 181.808 292.334 183.092 292.334 184.532C292.334 185.972 292.634 187.256 293.234 188.384C293.858 189.512 294.698 190.388 295.754 191.012C296.834 191.612 298.046 191.912 299.39 191.912Z" fill="black"/>
</svg>
