<svg width="100%" height="100%" viewBox="0 0 500 350" fill="none" xmlns="http://www.w3.org/2000/svg">
<rect className='shape' width="500" height="350" rx="132.5" fill="white" fill-opacity=' 0.4'/>
<path d="M149.104 168.8H159.364C162.028 168.8 164.38 169.34 166.42 170.42C168.46 171.476 170.044 172.964 171.172 174.884C172.3 176.78 172.864 178.952 172.864 181.4C172.864 183.848 172.3 186.032 171.172 187.952C170.044 189.848 168.46 191.336 166.42 192.416C164.38 193.472 162.028 194 159.364 194H149.104V168.8ZM159.22 191.696C161.428 191.696 163.36 191.264 165.016 190.4C166.672 189.512 167.956 188.3 168.868 186.764C169.78 185.204 170.236 183.416 170.236 181.4C170.236 179.384 169.78 177.608 168.868 176.072C167.956 174.512 166.672 173.3 165.016 172.436C163.36 171.548 161.428 171.104 159.22 171.104H151.768V191.696H159.22ZM178.306 175.064H180.862V194H178.306V175.064ZM179.602 170.924C179.074 170.924 178.63 170.744 178.27 170.384C177.91 170.024 177.73 169.592 177.73 169.088C177.73 168.608 177.91 168.188 178.27 167.828C178.63 167.468 179.074 167.288 179.602 167.288C180.13 167.288 180.574 167.468 180.934 167.828C181.294 168.164 181.474 168.572 181.474 169.052C181.474 169.58 181.294 170.024 180.934 170.384C180.574 170.744 180.13 170.924 179.602 170.924ZM193.05 194.18C191.514 194.18 190.038 193.964 188.622 193.532C187.23 193.076 186.138 192.512 185.346 191.84L186.498 189.824C187.29 190.448 188.286 190.964 189.486 191.372C190.686 191.756 191.934 191.948 193.23 191.948C194.958 191.948 196.23 191.684 197.046 191.156C197.886 190.604 198.306 189.836 198.306 188.852C198.306 188.156 198.078 187.616 197.622 187.232C197.166 186.824 196.59 186.524 195.894 186.332C195.198 186.116 194.274 185.912 193.122 185.72C191.586 185.432 190.35 185.144 189.414 184.856C188.478 184.544 187.674 184.028 187.002 183.308C186.354 182.588 186.03 181.592 186.03 180.32C186.03 178.736 186.69 177.44 188.01 176.432C189.33 175.424 191.166 174.92 193.518 174.92C194.742 174.92 195.966 175.088 197.19 175.424C198.414 175.736 199.422 176.156 200.214 176.684L199.098 178.736C197.538 177.656 195.678 177.116 193.518 177.116C191.886 177.116 190.65 177.404 189.81 177.98C188.994 178.556 188.586 179.312 188.586 180.248C188.586 180.968 188.814 181.544 189.27 181.976C189.75 182.408 190.338 182.732 191.034 182.948C191.73 183.14 192.69 183.344 193.914 183.56C195.426 183.848 196.638 184.136 197.55 184.424C198.462 184.712 199.242 185.204 199.89 185.9C200.538 186.596 200.862 187.556 200.862 188.78C200.862 190.436 200.166 191.756 198.774 192.74C197.406 193.7 195.498 194.18 193.05 194.18ZM213.435 194.18C211.563 194.18 209.883 193.772 208.395 192.956C206.931 192.14 205.779 191 204.939 189.536C204.099 188.048 203.679 186.38 203.679 184.532C203.679 182.684 204.099 181.028 204.939 179.564C205.779 178.1 206.931 176.96 208.395 176.144C209.883 175.328 211.563 174.92 213.435 174.92C215.067 174.92 216.519 175.244 217.791 175.892C219.087 176.516 220.107 177.44 220.851 178.664L218.943 179.96C218.319 179.024 217.527 178.328 216.567 177.872C215.607 177.392 214.563 177.152 213.435 177.152C212.067 177.152 210.831 177.464 209.727 178.088C208.647 178.688 207.795 179.552 207.171 180.68C206.571 181.808 206.271 183.092 206.271 184.532C206.271 185.996 206.571 187.292 207.171 188.42C207.795 189.524 208.647 190.388 209.727 191.012C210.831 191.612 212.067 191.912 213.435 191.912C214.563 191.912 215.607 191.684 216.567 191.228C217.527 190.772 218.319 190.076 218.943 189.14L220.851 190.436C220.107 191.66 219.087 192.596 217.791 193.244C216.495 193.868 215.043 194.18 213.435 194.18ZM233.296 194.18C231.472 194.18 229.828 193.772 228.364 192.956C226.9 192.116 225.748 190.964 224.908 189.5C224.068 188.036 223.648 186.38 223.648 184.532C223.648 182.684 224.068 181.028 224.908 179.564C225.748 178.1 226.9 176.96 228.364 176.144C229.828 175.328 231.472 174.92 233.296 174.92C235.12 174.92 236.764 175.328 238.228 176.144C239.692 176.96 240.832 178.1 241.648 179.564C242.488 181.028 242.908 182.684 242.908 184.532C242.908 186.38 242.488 188.036 241.648 189.5C240.832 190.964 239.692 192.116 238.228 192.956C236.764 193.772 235.12 194.18 233.296 194.18ZM233.296 191.912C234.64 191.912 235.84 191.612 236.896 191.012C237.976 190.388 238.816 189.512 239.416 188.384C240.016 187.256 240.316 185.972 240.316 184.532C240.316 183.092 240.016 181.808 239.416 180.68C238.816 179.552 237.976 178.688 236.896 178.088C235.84 177.464 234.64 177.152 233.296 177.152C231.952 177.152 230.74 177.464 229.66 178.088C228.604 178.688 227.764 179.552 227.14 180.68C226.54 181.808 226.24 183.092 226.24 184.532C226.24 185.972 226.54 187.256 227.14 188.384C227.764 189.512 228.604 190.388 229.66 191.012C230.74 191.612 231.952 191.912 233.296 191.912ZM250.575 178.772C251.175 177.5 252.063 176.54 253.239 175.892C254.439 175.244 255.915 174.92 257.667 174.92V177.404L257.055 177.368C255.062 177.368 253.503 177.98 252.375 179.204C251.247 180.428 250.683 182.144 250.683 184.352V194H248.127V175.064H250.575V178.772ZM279.399 167.288V194H276.951V190.256C276.183 191.528 275.163 192.5 273.891 193.172C272.643 193.844 271.227 194.18 269.643 194.18C267.867 194.18 266.259 193.772 264.819 192.956C263.379 192.14 262.251 191 261.435 189.536C260.619 188.072 260.211 186.404 260.211 184.532C260.211 182.66 260.619 180.992 261.435 179.528C262.251 178.064 263.379 176.936 264.819 176.144C266.259 175.328 267.867 174.92 269.643 174.92C271.179 174.92 272.559 175.244 273.783 175.892C275.031 176.516 276.051 177.44 276.843 178.664V167.288H279.399ZM269.859 191.912C271.179 191.912 272.367 191.612 273.423 191.012C274.503 190.388 275.343 189.512 275.943 188.384C276.567 187.256 276.879 185.972 276.879 184.532C276.879 183.092 276.567 181.808 275.943 180.68C275.343 179.552 274.503 178.688 273.423 178.088C272.367 177.464 271.179 177.152 269.859 177.152C268.515 177.152 267.303 177.464 266.223 178.088C265.167 178.688 264.327 179.552 263.703 180.68C263.103 181.808 262.803 183.092 262.803 184.532C262.803 185.972 263.103 187.256 263.703 188.384C264.327 189.512 265.167 190.388 266.223 191.012C267.303 191.612 268.515 191.912 269.859 191.912ZM305.695 174.92C307.471 174.92 309.079 175.328 310.519 176.144C311.959 176.936 313.087 178.064 313.903 179.528C314.719 180.992 315.127 182.66 315.127 184.532C315.127 186.404 314.719 188.072 313.903 189.536C313.087 191 311.959 192.14 310.519 192.956C309.079 193.772 307.471 194.18 305.695 194.18C304.111 194.18 302.683 193.844 301.411 193.172C300.163 192.5 299.155 191.528 298.387 190.256V194H295.939V167.288H298.495V178.664C299.287 177.44 300.295 176.516 301.519 175.892C302.767 175.244 304.159 174.92 305.695 174.92ZM305.515 191.912C306.835 191.912 308.035 191.612 309.115 191.012C310.195 190.388 311.035 189.512 311.635 188.384C312.259 187.256 312.571 185.972 312.571 184.532C312.571 183.092 312.259 181.808 311.635 180.68C311.035 179.552 310.195 178.688 309.115 178.088C308.035 177.464 306.835 177.152 305.515 177.152C304.171 177.152 302.959 177.464 301.879 178.088C300.823 178.688 299.983 179.552 299.359 180.68C298.759 181.808 298.459 183.092 298.459 184.532C298.459 185.972 298.759 187.256 299.359 188.384C299.983 189.512 300.823 190.388 301.879 191.012C302.959 191.612 304.171 191.912 305.515 191.912ZM328.077 194.18C326.253 194.18 324.609 193.772 323.145 192.956C321.681 192.116 320.529 190.964 319.689 189.5C318.849 188.036 318.429 186.38 318.429 184.532C318.429 182.684 318.849 181.028 319.689 179.564C320.529 178.1 321.681 176.96 323.145 176.144C324.609 175.328 326.253 174.92 328.077 174.92C329.901 174.92 331.545 175.328 333.009 176.144C334.473 176.96 335.613 178.1 336.429 179.564C337.269 181.028 337.689 182.684 337.689 184.532C337.689 186.38 337.269 188.036 336.429 189.5C335.613 190.964 334.473 192.116 333.009 192.956C331.545 193.772 329.901 194.18 328.077 194.18ZM328.077 191.912C329.421 191.912 330.621 191.612 331.677 191.012C332.757 190.388 333.597 189.512 334.197 188.384C334.797 187.256 335.097 185.972 335.097 184.532C335.097 183.092 334.797 181.808 334.197 180.68C333.597 179.552 332.757 178.688 331.677 178.088C330.621 177.464 329.421 177.152 328.077 177.152C326.733 177.152 325.521 177.464 324.441 178.088C323.385 178.688 322.545 179.552 321.921 180.68C321.321 181.808 321.021 183.092 321.021 184.532C321.021 185.972 321.321 187.256 321.921 188.384C322.545 189.512 323.385 190.388 324.441 191.012C325.521 191.612 326.733 191.912 328.077 191.912ZM352.88 192.848C352.4 193.28 351.8 193.616 351.08 193.856C350.384 194.072 349.652 194.18 348.884 194.18C347.108 194.18 345.74 193.7 344.78 192.74C343.82 191.78 343.34 190.424 343.34 188.672V177.224H339.956V175.064H343.34V170.924H345.896V175.064H351.656V177.224H345.896V188.528C345.896 189.656 346.172 190.52 346.724 191.12C347.3 191.696 348.116 191.984 349.172 191.984C349.7 191.984 350.204 191.9 350.684 191.732C351.188 191.564 351.62 191.324 351.98 191.012L352.88 192.848Z" fill="black"/>
</svg>
