<svg width="30" height="30" viewBox="0 0 30 30" fill="none" xmlns="http://www.w3.org/2000/svg">
<path d="M30 4.39453V25.6055C30 28.0312 28.0312 30 25.6055 30H18.5156L16.7578 28.2422H15L13.2422 30H4.39453C1.96884 30 0 28.0312 0 25.6055V4.39453C0 1.96884 1.96884 0 4.39453 0H25.6055C28.0312 0 30 1.96884 30 4.39453Z" fill="#7984EB"/>
<path d="M30 4.39453V25.6055C30 28.0312 28.0312 30 25.6055 30H18.5156L16.7578 28.2422H15.8789V0H25.6055C28.0312 0 30 1.96884 30 4.39453Z" fill="#4661D1"/>
<path d="M18.5156 10.5469V14.0625H23.7891L22.9102 19.3359H18.5156V30H13.2422V19.3359H9.72656V14.0625H13.2422V10.5469C13.2422 8.59566 14.3145 6.89049 15.8789 5.97656C16.6523 5.53711 17.5665 5.27344 18.5156 5.27344H23.7891V10.5469H18.5156Z" fill="#ECECF1"/>
<path d="M18.5156 10.5469V14.0625H23.7891L22.9102 19.3359H18.5156V30H15.8789V5.97656C16.6523 5.53711 17.5665 5.27344 18.5156 5.27344H23.7891V10.5469H18.5156Z" fill="#E2E2E7"/>
</svg>
