<svg width="30" height="30" viewBox="0 0 30 30" fill="none" xmlns="http://www.w3.org/2000/svg">
<path d="M25.6055 0H4.39453C1.96884 0 0 1.96884 0 4.39453V25.6055C0 28.0312 1.96884 30 4.39453 30H25.6055C28.0312 30 30 28.0312 30 25.6055V4.39453C30 1.96884 28.0312 0 25.6055 0Z" fill="#FF5B5B"/>
<path d="M30 4.39453V25.6055C30 28.0312 28.0312 30 25.6055 30H15V0H25.6055C28.0312 0 30 1.96884 30 4.39453Z" fill="#FF3997"/>
<path d="M23.8477 8.78906C22.3938 8.78906 21.2109 7.6062 21.2109 6.15234C21.2109 4.69849 22.3938 3.51562 23.8477 3.51562C25.3015 3.51562 26.4844 4.69849 26.4844 6.15234C26.4844 7.6062 25.3015 8.78906 23.8477 8.78906ZM23.8477 5.27344C23.3627 5.27344 22.9688 5.66734 22.9688 6.15234C22.9688 6.63734 23.3627 7.03125 23.8477 7.03125C24.3327 7.03125 24.7266 6.63734 24.7266 6.15234C24.7266 5.66734 24.3327 5.27344 23.8477 5.27344Z" fill="#E2E2E7"/>
<path d="M15 7.03125C10.6407 7.03125 7.08984 10.5819 7.08984 14.9414C7.08984 19.3007 10.6407 22.8516 15 22.8516C19.3593 22.8516 22.9688 19.3007 22.9688 14.9414C22.9688 10.5819 19.3593 7.03125 15 7.03125ZM15 21.0938C11.6075 21.0938 8.84766 18.3339 8.84766 14.9414C8.84766 11.5489 11.6075 8.78906 15 8.78906C18.3925 8.78906 21.2109 11.5489 21.2109 14.9414C21.2109 18.3339 18.3925 21.0938 15 21.0938Z" fill="#ECECF1"/>
<path d="M22.9688 14.9414C22.9688 19.3007 19.3593 22.8516 15 22.8516V21.0938C18.3925 21.0938 21.2109 18.3339 21.2109 14.9414C21.2109 11.5489 18.3925 8.78906 15 8.78906V7.03125C19.3593 7.03125 22.9688 10.5819 22.9688 14.9414Z" fill="#E2E2E7"/>
</svg>
