<svg width="100%" height="100%" viewBox="0 0 1455 995" fill="none" xmlns="http://www.w3.org/2000/svg">
<rect width="1455" height="995" rx="34" fill="white"/>
<g clip-path="url(#clip0)">
<path d="M680 551.854C751.797 551.854 810 492.538 810 419.368C810 346.199 751.797 286.883 680 286.883C608.203 286.883 550 346.199 550 419.368C550 492.538 608.203 551.854 680 551.854Z" fill="#262626"/>
<path d="M697 529.434C624.766 529.434 566 469.543 566 395.928C566 322.313 624.766 262.424 697 262.424C769.233 262.424 828 322.313 828 395.928C828 469.543 769.233 529.434 697 529.434ZM697 264.462C671.486 264.462 646.545 272.172 625.331 286.618C604.117 301.064 587.583 321.596 577.819 345.618C568.055 369.641 565.501 396.074 570.478 421.576C575.456 447.079 587.742 470.504 605.783 488.89C623.824 507.276 646.81 519.797 671.833 524.869C696.857 529.942 722.794 527.338 746.366 517.388C769.938 507.438 790.085 490.587 804.26 468.967C818.434 447.348 826 421.93 826 395.928C825.961 361.073 812.358 327.657 788.174 303.011C763.99 278.365 731.201 264.501 697 264.462V264.462Z" fill="#3F3D56"/>
<path d="M1094 590.432H283V141H1094V590.432ZM285 588.394H1092V143.038H285V588.394Z" fill="#3F3D56"/>
<path d="M488 176.669H310V195.013H488V176.669Z" fill="#F2F2F2"/>
<path d="M755 176.669H577V195.013H755V176.669Z" fill="#F2F2F2"/>
<path d="M1022 176.669H844V195.013H1022V176.669Z" fill="#F2F2F2"/>
<path d="M500 186.86H320V166.478H500V186.86ZM322 184.822H498V168.516H322V184.822Z" fill="#3F3D56"/>
<path d="M767 186.86H587V166.478H767V186.86ZM589 184.822H765V168.516H589V184.822Z" fill="#3F3D56"/>
<path d="M1034 186.86H854V166.478H1034V186.86ZM856 184.822H1032V168.516H856V184.822Z" fill="#3F3D56"/>
<path d="M1227.08 836.791H399.474V839.394H1227.08V836.791Z" fill="#2F2E41"/>
<path d="M676.5 633.744L739.5 509.411L756.5 519.603L684.5 638.84L676.5 633.744Z" fill="#3F3D56"/>
<path d="M640 660.751C640 660.751 651.612 670.049 652.93 650.155C653.098 646.995 653.909 643.906 655.311 641.083C656.714 638.26 658.677 635.765 661.076 633.757C666.334 629.476 673.9 626.548 683 632.215C691.1 637.26 692.922 644.575 692.477 651.095C692.079 655.766 690.577 660.269 688.098 664.219C685.619 668.169 682.238 671.447 678.244 673.775C669.217 679.235 654.967 683.346 640 669.923C640 669.923 631 659.732 640 660.751Z" fill="black"/>
<path d="M751.397 366.268C764.799 366.268 775.663 355.196 775.663 341.538C775.663 327.88 764.799 316.807 751.397 316.807C737.995 316.807 727.131 327.88 727.131 341.538C727.131 355.196 737.995 366.268 751.397 366.268Z" fill="#FFB8B8"/>
<path d="M738.625 353.252C738.625 353.252 745.011 387.093 742.457 393.601C739.902 400.109 778.217 390.998 778.217 390.998C778.217 390.998 770.554 357.157 771.832 349.347C773.109 341.537 738.625 353.252 738.625 353.252Z" fill="#FFB8B8"/>
<path d="M696.479 470.394L699.033 505.537L711.71 560.728L715.636 575.823L722.022 552.395L715.636 499.03L713.467 475.004L696.479 470.394Z" fill="#FFB8B8"/>
<path d="M830.581 465.188V501.633C830.581 501.633 826.75 548.49 819.087 560.204C811.424 571.918 808.869 513.347 808.869 513.347L814.874 470.395L830.581 465.188Z" fill="#FFB8B8"/>
<path d="M716.913 578.426C716.913 578.426 710.528 586.236 715.636 665.632C720.745 745.029 713.082 802.299 729.685 802.299C729.685 802.299 724.576 819.219 738.625 820.521C752.674 821.823 759.06 823.124 760.337 819.219C761.614 815.315 764.169 797.092 760.337 797.092C760.337 797.092 760.337 802.299 762.891 781.473C765.446 760.648 765.446 661.727 771.832 648.712L792.266 696.87C792.266 696.87 792.266 718.997 796.098 729.41C799.929 739.823 806.315 799.696 806.315 799.696L805.038 808.807C805.038 808.807 835.69 814.013 836.967 808.807C838.244 803.6 838.244 795.791 836.967 793.188C835.69 790.584 835.69 790.584 838.244 785.378C840.799 780.172 840.799 776.267 839.521 772.362C838.244 768.457 838.244 683.854 838.244 683.854C838.244 683.854 835.69 581.029 820.364 575.823C805.038 570.617 716.913 578.426 716.913 578.426Z" fill="#2F2E41"/>
<path d="M733.517 810.108L723.299 828.33C723.299 828.33 707.335 822.473 710.528 837.442C737.987 839.394 757.144 836.791 757.144 836.791C757.144 836.791 763.53 839.394 764.807 835.489C766.084 831.584 761.614 817.918 757.783 817.918C753.951 817.918 733.517 810.108 733.517 810.108Z" fill="#2F2E41"/>
<path d="M807.592 804.902C807.592 804.902 797.375 828.33 801.206 829.632C805.038 830.934 839.521 836.14 842.076 837.442C844.63 838.743 857.402 840.045 858.679 832.235C859.956 824.426 852.293 821.823 852.293 821.823C852.293 821.823 838.244 819.219 834.413 806.203C830.581 793.188 807.592 804.902 807.592 804.902Z" fill="#2F2E41"/>
<path d="M780.772 387.093C780.772 387.093 746.288 380.585 738.625 387.093C730.962 393.601 699.033 406.617 699.033 413.125C699.033 419.633 715.636 483.41 715.636 483.41C715.636 483.41 706.696 579.728 715.636 582.331C724.576 584.934 739.902 577.124 757.783 586.235C775.663 595.347 826.75 578.426 826.75 578.426C826.75 578.426 807.592 495.125 812.701 479.505C817.809 463.886 821.641 410.521 821.641 410.521C821.641 410.521 799.929 387.093 780.772 387.093Z" fill="#8985A8"/>
<path d="M707.973 409.22L699.033 411.823C699.033 411.823 679.876 472.998 687.539 475.601C695.202 478.204 716.913 483.41 719.468 483.41C722.022 483.41 707.973 409.22 707.973 409.22Z" fill="#8985A8"/>
<path d="M801.206 402.712L821.641 410.522C821.641 410.522 848.461 461.283 842.076 467.791C835.69 474.299 807.592 480.807 807.592 480.807L801.206 402.712Z" fill="#8985A8"/>
<path d="M750.66 310.992C748.642 310.62 746.568 310.713 744.59 311.265C743.007 311.98 741.549 312.954 740.276 314.149C737.965 316.026 735.497 317.693 732.9 319.13C730.83 320.275 728.606 321.334 727.161 323.229C726.478 324.187 725.932 325.239 725.541 326.354C723.052 332.832 722.383 339.889 723.609 346.732C723.747 347.705 724.034 348.649 724.46 349.53C725.788 352.023 728.719 353.005 731.189 354.312C735.878 356.792 739.432 360.969 743.278 364.661C744.707 366.114 746.312 367.375 748.055 368.412C753.542 371.461 760.248 370.466 766.407 369.388C766.843 369.387 767.275 369.299 767.678 369.127C768.081 368.955 768.446 368.704 768.753 368.387C769.059 368.071 769.302 367.696 769.466 367.284C769.63 366.872 769.712 366.43 769.708 365.986L774.569 343.702C775.451 340.4 775.87 336.988 775.815 333.567C775.476 328.158 772.602 320.665 768.707 316.822C764.168 312.345 756.593 311.632 750.66 310.992Z" fill="#2F2E41"/>
<path d="M651 837.058C670.33 837.058 686 836.146 686 835.02C686 833.894 670.33 832.982 651 832.982C631.67 832.982 616 833.894 616 835.02C616 836.146 631.67 837.058 651 837.058Z" fill="black"/>
<path d="M643 841.135C662.33 841.135 678 840.222 678 839.096C678 837.971 662.33 837.058 643 837.058C623.67 837.058 608 837.971 608 839.096C608 840.222 623.67 841.135 643 841.135Z" fill="black"/>
<path d="M608 827.974C618.493 827.974 627 827.478 627 826.867C627 826.256 618.493 825.761 608 825.761C597.507 825.761 589 826.256 589 826.867C589 827.478 597.507 827.974 608 827.974Z" fill="black"/>
<path d="M676 852.432C686.493 852.432 695 851.937 695 851.326C695 850.715 686.493 850.219 676 850.219C665.507 850.219 657 850.715 657 851.326C657 851.937 665.507 852.432 676 852.432Z" fill="black"/>
</g>
<defs>
<clipPath id="clip0">
<rect x="283" y="141" width="944.078" height="711.432" fill="white"/>
</clipPath>
</defs>
</svg>
