<svg className='loadingImage' width="476" height="76" viewBox="0 0 476 76" fill="none" xmlns="http://www.w3.org/2000/svg">
<path d="M109.536 5.80007L87.5521 73.0001H70.8481L56.0641 27.4961L40.8001 73.0001H24.1921L2.11206 5.80007H18.2401L33.4081 53.0321L49.2481 5.80007H63.6481L79.0081 53.4161L94.6561 5.80007H109.536Z" stroke="#FF9D0A" stroke-width="3"/>
<path d="M163.91 47.3681C163.91 47.5601 163.814 48.9041 163.622 51.4001H124.55C125.254 54.6001 126.918 57.1281 129.542 58.9841C132.166 60.8401 135.43 61.7681 139.334 61.7681C142.022 61.7681 144.39 61.3841 146.438 60.6161C148.55 59.7841 150.502 58.5041 152.294 56.7761L160.262 65.4161C155.398 70.9841 148.294 73.7681 138.95 73.7681C133.126 73.7681 127.974 72.6481 123.494 70.4081C119.014 68.1041 115.558 64.9361 113.126 60.9041C110.694 56.8721 109.478 52.2961 109.478 47.1761C109.478 42.1201 110.662 37.5761 113.03 33.5441C115.462 29.4481 118.758 26.2801 122.918 24.0401C127.142 21.7361 131.846 20.5841 137.03 20.5841C142.086 20.5841 146.662 21.6721 150.758 23.8481C154.854 26.0241 158.054 29.1601 160.358 33.2561C162.726 37.2881 163.91 41.9921 163.91 47.3681ZM137.126 31.9121C133.734 31.9121 130.886 32.8721 128.582 34.7921C126.278 36.7121 124.87 39.3361 124.358 42.6641H149.798C149.286 39.4001 147.878 36.8081 145.574 34.8881C143.27 32.9041 140.454 31.9121 137.126 31.9121Z" stroke="#FF9D0A" stroke-width="3"/>
<path d="M173.881 1.76807H188.857V73.0001H173.881V1.76807Z" stroke="#FF9D0A" stroke-width="3"/>
<path d="M227.716 73.7681C222.212 73.7681 217.252 72.6481 212.836 70.4081C208.484 68.1041 205.06 64.9361 202.564 60.9041C200.132 56.8721 198.916 52.2961 198.916 47.1761C198.916 42.0561 200.132 37.4801 202.564 33.4481C205.06 29.4161 208.484 26.2801 212.836 24.0401C217.252 21.7361 222.212 20.5841 227.716 20.5841C233.156 20.5841 237.892 21.7361 241.924 24.0401C246.02 26.2801 248.996 29.5121 250.852 33.7361L239.236 39.9761C236.548 35.2401 232.676 32.8721 227.62 32.8721C223.716 32.8721 220.484 34.1521 217.924 36.7121C215.364 39.2721 214.084 42.7601 214.084 47.1761C214.084 51.5921 215.364 55.0801 217.924 57.6401C220.484 60.2001 223.716 61.4801 227.62 61.4801C232.74 61.4801 236.612 59.1121 239.236 54.3761L250.852 60.7121C248.996 64.8081 246.02 68.0081 241.924 70.3121C237.892 72.6161 233.156 73.7681 227.716 73.7681Z" stroke="#FF9D0A" stroke-width="3"/>
<path d="M283.394 73.7681C277.954 73.7681 273.058 72.6481 268.706 70.4081C264.418 68.1041 261.058 64.9361 258.626 60.9041C256.194 56.8721 254.978 52.2961 254.978 47.1761C254.978 42.0561 256.194 37.4801 258.626 33.4481C261.058 29.4161 264.418 26.2801 268.706 24.0401C273.058 21.7361 277.954 20.5841 283.394 20.5841C288.834 20.5841 293.698 21.7361 297.986 24.0401C302.274 26.2801 305.634 29.4161 308.066 33.4481C310.498 37.4801 311.714 42.0561 311.714 47.1761C311.714 52.2961 310.498 56.8721 308.066 60.9041C305.634 64.9361 302.274 68.1041 297.986 70.4081C293.698 72.6481 288.834 73.7681 283.394 73.7681ZM283.394 61.4801C287.234 61.4801 290.37 60.2001 292.802 57.6401C295.298 55.0161 296.546 51.5281 296.546 47.1761C296.546 42.8241 295.298 39.3681 292.802 36.8081C290.37 34.1841 287.234 32.8721 283.394 32.8721C279.554 32.8721 276.386 34.1841 273.89 36.8081C271.394 39.3681 270.146 42.8241 270.146 47.1761C270.146 51.5281 271.394 55.0161 273.89 57.6401C276.386 60.2001 279.554 61.4801 283.394 61.4801Z" stroke="#FF9D0A" stroke-width="3"/>
<path d="M387.869 20.5841C394.333 20.5841 399.453 22.5041 403.229 26.3441C407.069 30.1201 408.989 35.8161 408.989 43.4321V73.0001H394.013V45.7361C394.013 41.6401 393.149 38.6001 391.421 36.6161C389.757 34.5681 387.357 33.5441 384.221 33.5441C380.701 33.5441 377.917 34.6961 375.869 37.0001C373.821 39.2401 372.797 42.6001 372.797 47.0801V73.0001H357.821V45.7361C357.821 37.6081 354.557 33.5441 348.029 33.5441C344.573 33.5441 341.821 34.6961 339.773 37.0001C337.725 39.2401 336.701 42.6001 336.701 47.0801V73.0001H321.725V21.3521H336.029V27.3041C337.949 25.1281 340.285 23.4641 343.037 22.3121C345.853 21.1601 348.925 20.5841 352.253 20.5841C355.901 20.5841 359.197 21.3201 362.141 22.7921C365.085 24.2001 367.453 26.2801 369.245 29.0321C371.357 26.3441 374.013 24.2641 377.213 22.7921C380.477 21.3201 384.029 20.5841 387.869 20.5841Z" stroke="#FF9D0A" stroke-width="3"/>
<path d="M473.567 47.3681C473.567 47.5601 473.471 48.9041 473.279 51.4001H434.207C434.911 54.6001 436.575 57.1281 439.199 58.9841C441.823 60.8401 445.087 61.7681 448.991 61.7681C451.679 61.7681 454.047 61.3841 456.095 60.6161C458.207 59.7841 460.159 58.5041 461.951 56.7761L469.919 65.4161C465.055 70.9841 457.951 73.7681 448.607 73.7681C442.783 73.7681 437.631 72.6481 433.151 70.4081C428.671 68.1041 425.215 64.9361 422.783 60.9041C420.351 56.8721 419.135 52.2961 419.135 47.1761C419.135 42.1201 420.319 37.5761 422.687 33.5441C425.119 29.4481 428.415 26.2801 432.575 24.0401C436.799 21.7361 441.503 20.5841 446.687 20.5841C451.743 20.5841 456.319 21.6721 460.415 23.8481C464.511 26.0241 467.711 29.1601 470.015 33.2561C472.383 37.2881 473.567 41.9921 473.567 47.3681ZM446.783 31.9121C443.391 31.9121 440.543 32.8721 438.239 34.7921C435.935 36.7121 434.527 39.3361 434.015 42.6641H459.455C458.943 39.4001 457.535 36.8081 455.231 34.8881C452.927 32.9041 450.111 31.9121 446.783 31.9121Z" stroke="#FF9D0A" stroke-width="3"/>
</svg>
