<svg width="30" height="30" viewBox="0 0 30 30" fill="none" xmlns="http://www.w3.org/2000/svg">
<path d="M15 30C23.2843 30 30 23.2843 30 15C30 6.71573 23.2843 0 15 0C6.71573 0 0 6.71573 0 15C0 23.2843 6.71573 30 15 30Z" fill="#A8ADF0"/>
<path d="M15 0C14.3369 0 13.6839 0.0435938 13.0435 0.126973C20.4033 1.08574 26.0869 7.37889 26.0869 15C26.0869 22.6211 20.4032 28.9143 13.0434 29.873C13.6839 29.9564 14.3369 30 15 30C23.2843 30 30 23.2842 30 15C30 6.71578 23.2843 0 15 0Z" fill="#989FEC"/>
<path d="M24.4819 6.68979L24.4078 6.50194C24.4056 6.49654 24.4015 6.49209 24.3961 6.48969L24.2123 6.40619C22.6987 5.71871 20.5637 5.54908 18.6748 5.47391H16.5472C16.5232 5.47391 16.5159 5.50637 16.5375 5.51674L20.9076 7.61188C20.9323 7.62365 20.9187 7.66033 20.8922 7.65342C18.9268 7.14014 16.9413 6.88033 14.9807 6.88033C13.0264 6.88033 11.0473 7.13856 9.08794 7.64856C9.06128 7.65547 9.04775 7.61838 9.07277 7.60684L13.5963 5.51697C13.6182 5.50684 13.611 5.47402 13.5868 5.47402H11.2866C9.39773 5.5492 7.26263 5.71883 5.74909 6.40631L5.56523 6.48981C5.5599 6.49221 5.55568 6.4966 5.55357 6.50205L5.47951 6.6899C3.93052 10.6149 3.49037 17.2781 3.95976 21.4524L3.98437 21.6713L4.15851 21.8063C6.57831 23.6827 9.81392 24.6475 11.8494 24.9035L12.1126 24.9366C12.1982 24.9474 12.2799 24.8979 12.3101 24.8172L13.6349 21.2777C13.6762 21.1674 13.6059 21.0469 13.4896 21.0286L13.083 20.9647C11.6655 20.742 9.65706 20.1516 7.95978 18.6124C7.92357 18.5795 7.95849 18.5205 8.00431 18.5374C8.14224 18.5887 8.29435 18.6481 8.45097 18.7093C8.83476 18.8592 9.23167 19.0143 9.49066 19.0758C11.3108 19.5086 13.1566 19.7281 14.9805 19.7281V19.6956H14.9843L14.9846 19.7281C16.8049 19.7281 18.6506 19.5086 20.4705 19.0758C20.7296 19.0142 21.1266 18.8592 21.5104 18.7092C21.6669 18.6481 21.819 18.5887 21.9568 18.5374C22.0026 18.5205 22.0376 18.5796 22.0014 18.6124C20.3098 20.1448 18.2988 20.7337 16.8781 20.9563L16.4717 21.0199C16.3553 21.0381 16.2849 21.1585 16.3261 21.2688L17.6512 24.817C17.6814 24.8978 17.7632 24.9473 17.8487 24.9365L18.1121 24.9034C20.1475 24.6474 23.3829 23.6827 25.8027 21.8063L25.9769 21.6712L26.0015 21.4523C26.4709 17.2781 26.0308 10.6148 24.4819 6.68979ZM10.6567 16.3262C9.01118 16.473 7.63839 15.1003 7.78494 13.4548C7.89732 12.1934 8.91298 11.1777 10.1744 11.0652C11.8199 10.9184 13.1927 12.2911 13.0461 13.9366C12.9337 15.198 11.918 16.2137 10.6567 16.3262ZM19.7871 16.3262C18.1416 16.473 16.7688 15.1003 16.9154 13.4548C17.0277 12.1934 18.0434 11.1777 19.3048 11.0652C20.9502 10.9184 22.3231 12.2911 22.1766 13.9366C22.0641 15.198 21.0484 16.2137 19.7871 16.3262Z" fill="white"/>
</svg>
