<svg width="30" height="30" viewBox="0 0 30 30" fill="none" xmlns="http://www.w3.org/2000/svg">
<path d="M30 15.0586C30 22.0898 25.0722 27.9785 18.5156 29.5605L16.7226 23.8653H13.2774L11.543 29.5605C4.98642 27.9785 0 22.0898 0 15.0586C0 6.8145 6.75591 0 15 0C23.2441 0 30 6.8145 30 15.0586Z" fill="#384949"/>
<path d="M30 15.0586C30 22.0898 25.0722 27.9785 18.5156 29.5605L16.7226 23.8653H15V0C23.2441 0 30 6.8145 30 15.0586V15.0586Z" fill="#293939"/>
<path d="M10.6217 25.1987C10.2656 25.1987 9.91792 25.1479 9.57712 25.0477C8.69066 24.7858 7.97037 24.1953 7.4357 23.2949C7.19194 22.8838 6.93788 22.5989 6.6385 22.3979C6.34393 22.1997 6.10887 22.1242 5.86076 22.1423L5.70627 20.3913C6.35767 20.3355 6.98091 20.5122 7.61606 20.9372C8.13356 21.283 8.56866 21.7612 8.94724 22.397C9.25806 22.9198 9.6158 23.2262 10.0752 23.362C10.5911 23.5137 11.1264 23.4503 11.8115 23.1585L12.5034 24.7737C11.8414 25.0571 11.2184 25.1987 10.6217 25.1987V25.1987Z" fill="#ECECF1"/>
<path d="M23.4904 16.834C22.8749 18.4687 21.3281 20.5431 17.4083 21.1231C17.918 21.8788 18.5333 22.2833 18.5156 23.8653V29.5606C17.3907 29.8419 16.2128 30 15 30C13.7872 30 12.6679 29.8419 11.543 29.5606V23.7948C11.543 22.2304 12.1349 21.7909 12.5917 21.1231C8.67188 20.5428 7.12509 18.4687 6.50963 16.834C5.6836 14.6542 6.12305 11.9472 7.56455 10.2246C7.59957 10.1894 7.65244 10.1015 7.63481 10.0488C6.96671 8.04498 7.77535 6.37506 7.81059 6.19928C8.56636 6.4277 8.6895 5.97063 11.1328 7.46477L11.5546 7.71104C11.7304 7.81633 11.6778 7.74606 11.8536 7.74606C12.873 7.46477 13.9453 7.30661 15 7.30661C16.0723 7.30661 17.127 7.46477 18.1991 7.74606L18.3222 7.76369C18.3222 7.76369 18.3572 7.76369 18.4454 7.71104C21.4863 5.86511 21.3808 6.46295 22.2068 6.19928C22.2244 6.37506 23.0331 8.06238 22.3652 10.0488C22.2773 10.3125 25.0019 12.8085 23.4904 16.834V16.834Z" fill="#ECECF1"/>
<path d="M23.4904 16.834C22.8749 18.4687 21.3281 20.5431 17.4083 21.1231C17.918 21.8788 18.5332 22.2833 18.5156 23.8653V29.5606C17.3907 29.8419 16.2128 30 15 30V7.30661C16.0723 7.30661 17.127 7.46477 18.1993 7.74606L18.3222 7.76369C18.3222 7.76369 18.3575 7.76369 18.4454 7.71104C21.4863 5.86511 21.3808 6.46295 22.207 6.19928C22.2247 6.37506 23.0333 8.06238 22.3652 10.0488C22.2773 10.3125 25.0019 12.8085 23.4904 16.834V16.834Z" fill="#E2E2E7"/>
</svg>
